{"title":"The Artist 2011 DVDScr XVID AC3 HQ Hive-CM8","uid":6977732,"size":1206410050,"categoryP":"video","categoryS":"movies","magnet":"?xt=urn:btih:8ad17a44848bf3933d2e8fdbef93b82655600a4c&amp;dn=The+Artist+2011+DVDScr+XVID+AC3+HQ+Hive-CM8&amp;tr=udp%3A%2F%2Ftracker.openbittorrent.com%3A80&amp;tr=udp%3A%2F%2Fopen.demonii.com%3A1337&amp;tr=udp%3A%2F%2Ftracker.coppersurfer.tk%3A6969&amp;tr=udp%3A%2F%2Fexodus.desync.com%3A6969","seeders":0,"leechers":1,"uploader":"neon","files":-1,"time":1327308476,"description":"Encode:\nHere comes another DVDScr with watermarks all over, an annoying property mark at\nthe top of the screen every 15 mins, and some screentext with english and french.\nThere are already a lot of versions out, but it looks like all are cropped to death and afterwards either the aspect was fixed or not or nearly, only because of some NOT disturbing french subs that appear very rarely. if you crop those subs away you lose around 1/3 of the video on height. that is way too much, and not worth it.\n\nFirstly that property watermarks had to leave, i used transition spots again to\nremove them at these spots, the rest of the movie is as it was. Yes 4:3 btw as\nit was meant to be with music and nearly no voice. also tweaked the video since\nit was too dark, added sharpness and denoise. It does look like a dvdrip now.\nif you take a look at my pics and the one from any avi you already got you will\nsee how much was really cropped.\ngot very nice\nenjoy\n\nVideo: 720x528 @bitrate 1500 2pass\nAudio: English AC3 2.0 Stereo\nSample: Yes, included[/b]\n \n &lt;a href=&quot; http://www.imdb.com/title/tt1655442/&quot; rel=&quot;nofollow&quot; target=&quot;_NEW&quot;&gt; http://www.imdb.com/title/tt1655442/&lt;/a&gt;\n\n\nGeneral\nComplete name                  : The.Artist.2012.DVDScr.XVID.AC3.HQ.Hive-CM8.avi\nFormat                         : AVI\nFormat/Info                    : Audio Video Interleave\nFile size                      : 1.12 GiB\nDuration                       : 1h 36mn\nOverall bit rate               : 1 662 Kbps\nWriting application            : Nandub v1.0rc2\nWriting library                : Nandub build 1853/release\n\nVideo\nID                             : 0\nFormat                         : MPEG-4 Visual\nFormat profile                 : Advanced Simple@L5\nFormat settings, BVOP          : 2\nFormat settings, QPel          : Yes\nFormat settings, GMC           : No warppoints\nFormat settings, Matrix        : Default (H.263)\nMuxing mode                    : Packed bitstream\nCodec ID                       : XVID\nCodec ID/Hint                  : XviD\nDuration                       : 1h 36mn\nBit rate                       : 1 461 Kbps\nWidth                          : 720 pixels\nHeight                         : 528 pixels\nDisplay aspect ratio           : 4:3\nFrame rate                     : 25.000 fps\nColor space                    : YUV\nChroma subsampling             : 4:2:0\nBit depth                      : 8 bits\nScan type                      : Progressive\nCompression mode               : Lossy\nBits/(Pixel*Frame)             : 0.154\nStream size                    : 1 004 MiB (88%)\nWriting library                : XviD 1.2.1 (UTC 2008-12-04)\n\nAudio\nID                             : 1\nFormat                         : AC-3\nFormat/Info                    : Audio Coding 3\nMode extension                 : CM (complete main)\nCodec ID                       : 2000\nDuration                       : 1h 36mn\nBit rate mode                  : Constant\nBit rate                       : 192 Kbps\nChannel(s)                     : 2 channels\nChannel positions              : Front: L R\nSampling rate                  : 48.0 KHz\nBit depth                      : 16 bits\nCompression mode               : Lossy\nStream size                    : 132 MiB (12%)\nAlignment                      : Split accross interleaves\nInterleave, duration           : 40 ms (1.00 video frame)\nInterleave, preload duration   : 500 ms\n\n\nPlot:\nAs silent movie star George Valentin wonders if the arrival of talking pictures will cause him to fade into oblivion, he sparks with Peppy Miller, a young dancer set for a big break.\n\n\nCast:\nJean Dujardin    ...    George Valentin\nBerenice Bejo    ...    Peppy Miller\nJohn Goodman     ...    Al Zimmer\nJames Cromwell   ...    Clifton\n &lt;a href=&quot;\nhttp://www.aedes.us/d/Xk9q.png&quot; rel=&quot;nofollow&quot; target=&quot;_NEW&quot;&gt;\nhttp://www.aedes.us/d/Xk9q.png&lt;/a&gt; &lt;a href=&quot;\nhttp://www.aedes.us/d/GOfog.png&quot; rel=&quot;nofollow&quot; target=&quot;_NEW&quot;&gt;\nhttp://www.aedes.us/d/GOfog.png&lt;/a&gt; &lt;a href=&quot;\nhttp://www.aedes.us/d/b1vkM.png&quot; rel=&quot;nofollow&quot; target=&quot;_NEW&quot;&gt;\nhttp://www.aedes.us/d/b1vkM.png&lt;/a&gt;","torrent":{"xt":"urn:btih:8ad17a44848bf3933d2e8fdbef93b82655600a4c","amp;dn":"The+Artist+2011+DVDScr+XVID+AC3+HQ+Hive-CM8","amp;tr":["udp%3A%2F%2Ftracker.openbittorrent.com%3A80","udp%3A%2F%2Fopen.demonii.com%3A1337","udp%3A%2F%2Ftracker.coppersurfer.tk%3A6969","udp%3A%2F%2Fexodus.desync.com%3A6969"],"infoHash":"8ad17a44848bf3933d2e8fdbef93b82655600a4c","infoHashBuffer":{"type":"Buffer","data":[138,209,122,68,132,139,243,147,61,46,143,219,239,147,184,38,85,96,10,76]},"announce":[],"urlList":[]}}